<svg width="31" height="31" viewBox="0 0 31 31" fill="none" xmlns="http://www.w3.org/2000/svg">
<mask id="mask0_674_28" style="mask-type:luminance" maskUnits="userSpaceOnUse" x="0" y="0" width="31" height="31">
<path d="M30.7784 0H0.778381V30.2567H30.7784V0Z" fill="white"/>
</mask>
<g mask="url(#mask0_674_28)">
<path d="M25.7986 0H5.75855C5.09905 0.00557855 4.4471 0.14304 3.8399 0.40454C3.2327 0.66604 2.68217 1.04646 2.21973 1.52407C1.75729 2.00167 1.39199 2.56712 1.14471 3.18811C0.897439 3.80911 0.77302 4.47349 0.778558 5.14333V25.0646C0.77302 25.7344 0.897439 26.3988 1.14471 27.0198C1.39199 27.6408 1.75729 28.2062 2.21973 28.6839C2.68217 29.1615 3.2327 29.5419 3.8399 29.8034C4.4471 30.0649 5.09905 30.2023 5.75855 30.2079H25.7986C26.4581 30.2023 27.11 30.0649 27.7172 29.8034C28.3244 29.5419 28.875 29.1615 29.3374 28.6839C29.7999 28.2062 30.1651 27.6408 30.4124 27.0198C30.6597 26.3988 30.7841 25.7344 30.7786 25.0646V5.14333C30.7841 4.47349 30.6597 3.80911 30.4124 3.18811C30.1651 2.56712 29.7999 2.00167 29.3374 1.52407C28.875 1.04646 28.3244 0.66604 27.7172 0.40454C27.11 0.14304 26.4581 0.00557855 25.7986 0Z" fill="#00005B"/>
<path d="M12.835 18.0718H8.18205L7.23406 21.1188C7.22381 21.1713 7.1962 21.2186 7.15582 21.253C7.11544 21.2873 7.06473 21.3066 7.01206 21.3077H4.63906C4.50406 21.3077 4.45907 21.2315 4.49807 21.0792L8.52405 9.15631L8.56306 9.03139V8.98872L8.59004 8.89732C8.59004 8.85161 8.61705 8.80286 8.62905 8.74801C8.68302 8.47105 8.71015 8.18938 8.71005 7.90705C8.70559 7.88802 8.70559 7.86819 8.71005 7.84915C8.71586 7.82971 8.72614 7.81195 8.74004 7.79735C8.75369 7.78379 8.77007 7.77339 8.78805 7.76688C8.80694 7.7639 8.82617 7.7639 8.84506 7.76688H12.046C12.139 7.76688 12.1931 7.80344 12.2051 7.87353L16.774 21.1036C16.813 21.2437 16.774 21.3138 16.654 21.3138H14.038C13.9927 21.3165 13.9476 21.3048 13.909 21.2803C13.8723 21.2529 13.8466 21.2128 13.8371 21.1675L12.835 18.0718ZM8.90506 15.5093H12.085L12.04 15.3539L11.968 15.1101L11.86 14.7597L11.656 14.0985L11.461 13.4617L11.0981 12.2764C10.9991 11.9504 10.9031 11.6213 10.7981 11.2922L10.696 10.9175L10.585 10.5061L10.483 10.1253H10.465C10.363 10.625 10.24 11.1186 10.096 11.6061L9.96104 12.057L9.63406 13.1448L9.46606 13.7024C9.43606 13.803 9.40904 13.9005 9.37905 14.0071L9.28905 14.2966L9.19905 14.58L9.11206 14.8572L9.02505 15.1284C8.99205 15.2503 8.95006 15.3874 8.90506 15.5093ZM24.205 16.8896H20.236C20.2845 17.2943 20.4153 17.6845 20.62 18.0352C20.8402 18.3775 21.1526 18.6482 21.52 18.8153C22.0234 19.0403 22.5692 19.1506 23.119 19.1382C23.5555 19.1292 23.9902 19.0803 24.418 18.992C24.8007 18.9361 25.1754 18.8338 25.534 18.6873C25.6 18.6324 25.633 18.666 25.633 18.7909V20.7653C25.6383 20.819 25.6279 20.8731 25.603 20.9207C25.5811 20.9592 25.5502 20.9917 25.513 21.0152C25.116 21.1971 24.6976 21.3261 24.268 21.3991C23.6837 21.5117 23.0897 21.5637 22.495 21.5545C21.6961 21.578 20.9011 21.4317 20.161 21.1249L20.101 21.0975C19.4918 20.8207 18.9546 20.4033 18.532 19.8787C18.1359 19.3775 17.8413 18.8018 17.665 18.1845C17.4915 17.5724 17.4036 16.9385 17.404 16.3015C17.3985 15.6073 17.4997 14.9164 17.704 14.2539C17.9045 13.6115 18.222 13.0131 18.64 12.4897C19.0478 11.9785 19.5595 11.5628 20.14 11.2709C20.7995 10.972 21.5185 10.8333 22.24 10.8657C22.908 10.8497 23.571 10.985 24.181 11.2618C24.6963 11.4892 25.1486 11.8418 25.498 12.2886C25.828 12.73 26.0807 13.2257 26.245 13.7542C26.404 14.2658 26.485 14.7991 26.485 15.3356C26.485 15.6403 26.485 15.9176 26.455 16.1674L26.437 16.3807L26.419 16.5818V16.6854V16.7067C26.4148 16.7527 26.3933 16.7953 26.359 16.8256C26.3261 16.8555 26.2832 16.8718 26.239 16.8713H26.062H25.936H25.825H25.732H25.633H25.528H25.414H25.114C24.9818 16.8737 24.8496 16.8686 24.718 16.8561H24.514C24.412 16.9109 24.307 16.8896 24.202 16.8896H24.205ZM20.239 14.9974H23.476H23.59C23.6968 14.99 23.7999 14.9554 23.89 14.8968V14.778C23.887 14.6155 23.8608 14.4544 23.812 14.2996C23.7043 13.9456 23.4851 13.6373 23.188 13.4221C22.8947 13.2095 22.54 13.1023 22.18 13.1174C21.8416 13.0955 21.5043 13.1761 21.211 13.349C20.9142 13.5227 20.6742 13.7812 20.521 14.0924C20.3805 14.3773 20.2843 14.6826 20.236 14.9974H20.239Z" fill="#9999FF"/>
</g>
</svg>
