<svg width="31" height="31" viewBox="0 0 31 31" fill="none" xmlns="http://www.w3.org/2000/svg">
<mask id="mask0_674_16" style="mask-type:luminance" maskUnits="userSpaceOnUse" x="0" y="0" width="31" height="31">
<path d="M30.2712 0H0.27124V30.2567H30.2712V0Z" fill="white"/>
</mask>
<g mask="url(#mask0_674_16)">
<path d="M25.2914 0H5.25142C4.59192 0.00557855 3.93995 0.14304 3.33275 0.40454C2.72555 0.66604 2.17502 1.04646 1.71258 1.52407C1.25014 2.00167 0.884851 2.56712 0.637576 3.18811C0.3903 3.80911 0.265879 4.47349 0.271417 5.14333V25.0646C0.265879 25.7344 0.3903 26.3988 0.637576 27.0198C0.884851 27.6408 1.25014 28.2062 1.71258 28.6839C2.17502 29.1615 2.72555 29.5419 3.33275 29.8034C3.93995 30.0649 4.59192 30.2023 5.25142 30.2079H25.2914C25.9509 30.2023 26.6029 30.0649 27.2101 29.8034C27.8173 29.5419 28.3678 29.1615 28.8303 28.6839C29.2927 28.2062 29.658 27.6408 29.9053 27.0198C30.1525 26.3988 30.277 25.7344 30.2714 25.0646V5.14333C30.277 4.47349 30.1525 3.80911 29.9053 3.18811C29.658 2.56712 29.2927 2.00167 28.8303 1.52407C28.3678 1.04646 27.8173 0.66604 27.2101 0.40454C26.6029 0.14304 25.9509 0.00557855 25.2914 0Z" fill="#330000"/>
<path d="M14.8084 18.1292H10.1584L9.21336 21.1762C9.202 21.2315 9.17161 21.2809 9.12762 21.3155C9.08364 21.3502 9.02894 21.3677 8.97336 21.3651H6.62736C6.49236 21.3651 6.44436 21.2889 6.48636 21.1366L10.5094 9.16494C10.5514 9.04001 10.5904 8.8968 10.6324 8.73836C10.6837 8.46107 10.7098 8.17956 10.7104 7.8974C10.7074 7.8772 10.7074 7.85666 10.7104 7.83646C10.7168 7.81819 10.727 7.80156 10.7404 7.7877C10.7537 7.77371 10.7701 7.76324 10.7884 7.75723C10.8071 7.75291 10.8266 7.75291 10.8454 7.75723H14.0464C14.1394 7.75723 14.1934 7.79075 14.2084 7.86083L18.7774 21.164C18.8164 21.3011 18.7774 21.3712 18.6544 21.3712H16.0384C15.9936 21.3773 15.9484 21.3653 15.9124 21.3377C15.8746 21.3106 15.848 21.2705 15.8374 21.2249L14.8084 18.1292ZM10.8844 15.5088H14.0644L14.0194 15.3534L13.9444 15.1096L13.8934 14.939L13.8124 14.6678L13.6354 14.098L13.4794 13.5922L13.0774 12.2759C12.9784 11.9499 12.8824 11.6208 12.7774 11.2917L12.7024 11.0236L12.6184 10.7189L12.4864 10.2283L12.4624 10.1339H12.4414C12.3434 10.6336 12.2214 11.1272 12.0754 11.6147L11.7754 12.608L11.6104 13.1565L11.4454 13.711L11.3554 14.0157L11.2654 14.3052L11.1784 14.5886L11.0914 14.8659L11.0014 15.137C10.9744 15.2254 10.9444 15.3107 10.9144 15.3991L10.8844 15.5088ZM21.4894 9.93888C21.2841 9.94796 21.0794 9.91156 20.8894 9.83223C20.6979 9.75309 20.5251 9.63367 20.3824 9.48183C20.2401 9.32229 20.13 9.13596 20.0584 8.93337C19.9838 8.72995 19.9501 8.51341 19.9594 8.29655C19.9532 8.08206 19.99 7.86854 20.0674 7.66887C20.1506 7.47535 20.2733 7.30193 20.4274 7.16002C20.7141 6.87404 21.0995 6.71328 21.5014 6.71212H21.5434C21.7535 6.70092 21.9635 6.73474 22.16 6.81138C22.3564 6.88802 22.5347 7.00577 22.6834 7.15697C22.8779 7.40578 23.0074 7.70046 23.0598 8.01367C23.1123 8.32688 23.086 8.64848 22.9834 8.9486C22.9085 9.15165 22.7954 9.33794 22.6504 9.49707C22.5046 9.64659 22.3299 9.76381 22.1374 9.84137C21.9471 9.9203 21.7428 9.95869 21.5374 9.95412L21.4894 9.93888ZM20.1004 21.1427V11.2064C20.1004 11.0815 20.1544 11.0206 20.2624 11.0206H22.7374C22.8454 11.0206 22.8994 11.0815 22.8994 11.2064V21.1427C22.8994 21.2798 22.8454 21.3499 22.7374 21.3499H20.2834C20.2587 21.3522 20.2339 21.349 20.2107 21.3405C20.1874 21.332 20.1663 21.3184 20.1488 21.3006C20.1313 21.2829 20.1179 21.2614 20.1096 21.2378C20.1012 21.2142 20.098 21.189 20.1004 21.164V21.1427Z" fill="#FF9A00"/>
</g>
</svg>
