<svg width="30" height="25" viewBox="0 0 30 25" fill="none" xmlns="http://www.w3.org/2000/svg">
<path d="M6.23109 0C4.51934 0 3.25266 1.52253 3.30937 3.17368C3.36387 4.75992 3.29309 6.81453 2.78414 8.48997C2.27367 10.1703 1.41023 11.2347 0 11.3714V12.9143C1.41023 13.051 2.27367 14.1154 2.78414 15.7959C3.29309 17.4713 3.36387 19.5257 3.30937 21.112C3.25266 22.7629 4.51934 24.2857 6.23133 24.2857H23.7711C25.483 24.2857 26.7493 22.7632 26.6926 21.112C26.6382 19.5258 26.7089 17.4713 27.2179 15.7959C27.7287 14.1155 28.5898 13.0509 30 12.9143V11.3714C28.5898 11.2347 27.7287 10.1703 27.218 8.48997C26.7089 6.81477 26.6382 4.76004 26.6926 3.17368C26.7493 1.52277 25.483 0 23.7711 0H6.23086H6.23109ZM20.3391 14.9494C20.3391 17.223 18.6703 18.6018 15.9009 18.6018H11.1865C11.0516 18.6018 10.9223 18.5473 10.827 18.4504C10.7317 18.3535 10.6781 18.2221 10.6781 18.0851V6.20064C10.6781 6.13277 10.6913 6.06557 10.7168 6.00286C10.7423 5.94016 10.7798 5.88318 10.827 5.83519C10.8742 5.78719 10.9303 5.74912 10.992 5.72314C11.0537 5.69717 11.1198 5.6838 11.1866 5.6838H15.874C18.1832 5.6838 19.6986 6.95506 19.6986 8.90666C19.6986 10.2765 18.6791 11.5029 17.3803 11.7176V11.7892C19.1486 11.9863 20.3391 13.2306 20.3391 14.9494ZM15.3867 7.32185H12.6988V11.1803H14.9629C16.7129 11.1803 17.6781 10.4641 17.6781 9.1839C17.6781 7.98433 16.848 7.32185 15.3867 7.32185ZM12.6988 12.7113V16.9633H15.4857C17.3078 16.9633 18.2732 16.2203 18.2732 14.8239C18.2732 13.4272 17.2809 12.711 15.3686 12.711H12.6988V12.7113Z" fill="#7E13F8"/>
</svg>
