<svg width="31" height="46" viewBox="0 0 31 46" fill="none" xmlns="http://www.w3.org/2000/svg">
<mask id="mask0_674_43" style="mask-type:luminance" maskUnits="userSpaceOnUse" x="0" y="0" width="31" height="46">
<path d="M30.2856 0H0.285583V45.3849H30.2856V0Z" fill="white"/>
</mask>
<g mask="url(#mask0_674_43)">
<path d="M15.2671 45.2694L3.0601 41.6344L0.339111 8.89752H30.234L27.504 41.6283L15.2671 45.2694Z" fill="#264DE4"/>
<path d="M25.1788 39.5441L27.5068 11.5728H15.2848V42.4875L25.1788 39.5441Z" fill="#2965F1"/>
<path d="M6.57623 23.715L6.91223 27.7309H15.2852V23.715H6.57623ZM5.90424 15.6008L6.24624 19.6168H15.2882V15.6008H5.90424ZM15.2882 34.157L11.1212 32.9382L10.8542 29.7358H7.07723L7.60223 36.0401L15.2702 38.3223L15.2882 34.157Z" fill="white"/>
<path d="M7.37427 0.000244141H11.9043V2.03258H9.26727V4.06799H11.9043V6.10032H7.37427V0.000244141ZM12.8133 0.000244141H17.3463V1.76749H14.7093V2.12096H17.3463V6.18868H12.8043V4.32697H15.4413V3.97353H12.8043L12.8133 0.000244141ZM18.2523 0.000244141H22.7853V1.76749H20.1483V2.12096H22.7853V6.18868H18.2523V4.32697H20.9043V3.97353H18.2643V0.000244141H18.2523Z" fill="black"/>
<path d="M23.974 23.715L24.649 15.6008H15.274V19.6168H20.548L20.206 23.7272H15.274V27.7431H19.882L19.447 32.9504L15.274 34.1692V38.3466L22.948 36.0644L23.002 35.3849L23.884 24.8149L23.974 23.715Z" fill="white"/>
</g>
</svg>
