<svg width="75" height="27" viewBox="0 0 75 27" fill="none" xmlns="http://www.w3.org/2000/svg">
<path d="M31.0306 5.56035V5.68167M31.0306 5.56035V21.4397M31.0306 5.56035C31.0306 3.25249 32.893 1.38159 35.1903 1.38159M31.0306 5.56035V9.32124M35.1903 25.6185H51.8289C54.1262 25.6185 55.9885 23.7476 55.9885 21.4397V17.6788C55.9885 15.3709 54.1262 13.5001 51.8289 13.5001H42.7296M35.1903 25.6185C32.893 25.6185 31.0306 23.7476 31.0306 21.4397M35.1903 25.6185L38.518 25.6184C40.8153 25.6184 42.6776 23.7475 42.6776 21.4396V13.0821L42.7296 8.39753M31.0306 21.4397V19.3503" stroke="#767676"/>
<path d="M42.8442 9.32124V5.56035C42.8442 3.25249 40.9818 1.38159 38.6845 1.38159H34.2198" stroke="#767676"/>
<path d="M0.66101 20.516L0.66101 18.2975C0.66101 16.0002 2.53191 14.1379 4.83977 14.1379L20.7191 14.1379C23.0269 14.1379 24.8978 16.0002 24.8978 18.2975L24.8978 20.516" stroke="#767676"/>
<path d="M0.661011 17.9647L0.66101 21.949C0.66101 24.2463 2.53191 26.1086 4.83977 26.1086L20.7191 26.1086C23.0269 26.1086 24.8978 24.2463 24.8978 21.949L24.8978 17.9647" stroke="#767676"/>
<path d="M70.3827 23.2831L68.5512 24.5349C66.6546 25.8312 64.0613 25.3375 62.7591 23.4322L53.7987 10.3225C52.4964 8.4172 52.9782 5.82174 54.8748 4.52541L56.7063 3.27357" stroke="#767676"/>
<path d="M68.2765 24.7226L71.5659 22.4744C73.4625 21.1781 73.9443 18.5826 72.642 16.6773L63.6816 3.56759C62.3793 1.66225 59.7861 1.16856 57.8895 2.46488L54.6001 4.71315" stroke="#767676"/>
</svg>
