<svg width="26" height="40" viewBox="0 0 26 40" fill="none" xmlns="http://www.w3.org/2000/svg">
<path d="M6.47186 39.1744C8.18185 39.1796 9.8239 38.4949 11.037 37.2709C12.2502 36.0469 12.9351 34.3837 12.9412 32.6469V26.1194H6.47186C4.76736 26.1194 3.13268 26.8071 1.92741 28.0312C0.722151 29.2554 0.0450439 30.9157 0.0450439 32.6469C0.0450439 34.3781 0.722151 36.0384 1.92741 37.2625C3.13268 38.4867 4.76736 39.1744 6.47186 39.1744Z" fill="#0ACF83"/>
<path d="M-0.000244141 19.5931C0.00279908 18.7328 0.17265 17.8815 0.499609 17.0879C0.826568 16.2943 1.30423 15.5738 1.90533 14.9677C2.50643 14.3615 3.21918 13.8816 4.00291 13.5552C4.78663 13.2289 5.62597 13.0625 6.473 13.0656H12.9424V26.1205H6.473C5.62597 26.1236 4.78663 25.9573 4.00291 25.6309C3.21918 25.3046 2.50643 24.8246 1.90533 24.2185C1.30423 23.6123 0.826568 22.8919 0.499609 22.0983C0.17265 21.3046 0.00279908 20.4534 -0.000244141 19.5931Z" fill="#A259FF"/>
<path d="M-0.000244141 6.53788C0.00692529 4.80111 0.692833 3.13831 1.90669 1.91501C3.12055 0.691718 4.76301 0.00805848 6.473 0.0143249H12.9424V13.0654H6.473C5.62597 13.0685 4.78663 12.9021 4.00291 12.5757C3.21918 12.2494 2.50643 11.7694 1.90533 11.1633C1.30423 10.5572 0.826568 9.8367 0.499609 9.04307C0.17265 8.24945 0.00279908 7.39818 -0.000244141 6.53788Z" fill="#F24E1E"/>
<path d="M12.9423 0.01405H19.4155C20.2725 -0.00731198 21.125 0.14568 21.9229 0.464016C22.7208 0.782352 23.448 1.2596 24.0615 1.86767C24.6751 2.47573 25.1627 3.20232 25.4956 4.00467C25.8285 4.80702 26 5.6689 26 6.53958C26 7.41026 25.8285 8.27214 25.4956 9.07449C25.1627 9.87684 24.6751 10.6034 24.0615 11.2115C23.448 11.8196 22.7208 12.2968 21.9229 12.6151C21.125 12.9335 20.2725 13.0865 19.4155 13.0651H12.9423V0.01405Z" fill="#FF7262"/>
<path d="M25.8858 19.5931C25.895 20.8955 25.5231 22.1714 24.8172 23.2589C24.1114 24.3464 23.1034 25.1964 21.9212 25.7011C20.739 26.2059 19.4358 26.3426 18.177 26.0939C16.9182 25.8453 15.7604 25.2225 14.8506 24.3045C13.9408 23.3865 13.32 22.2148 13.0669 20.9379C12.8137 19.661 12.9397 18.3365 13.4289 17.1325C13.918 15.9285 14.7483 14.8991 15.8143 14.1751C16.8803 13.451 18.134 13.0648 19.4164 13.0656C21.1264 13.0604 22.7685 13.745 23.9816 14.969C25.1947 16.1931 25.8797 17.8563 25.8858 19.5931Z" fill="#1ABCFE"/>
</svg>
