<svg width="31" height="42" viewBox="0 0 31 42" fill="none" xmlns="http://www.w3.org/2000/svg">
<mask id="mask0_674_34" style="mask-type:luminance" maskUnits="userSpaceOnUse" x="0" y="0" width="31" height="42">
<path d="M30.032 0H0.0319824V41.8931H30.032V0Z" fill="white"/>
</mask>
<g mask="url(#mask0_674_34)">
<path d="M29.9813 8.21195L27.2513 38.4259L15.0084 41.7776L2.80143 38.4259L0.0804443 8.20587L29.9813 8.21195Z" fill="#E44D26"/>
<path d="M15.0317 39.2182L24.9317 36.5033L27.2507 10.683H15.0317V39.2182Z" fill="#F16529"/>
<path d="M9.73711 18.0964H15.0321V14.3882H5.65112L5.74112 15.3846L6.66212 25.5981H15.0351V21.8899H10.0851L9.73711 18.0964ZM10.5831 27.4507H6.82412L7.34912 33.2704L15.0171 35.3789H15.0321V31.5275H15.0171L10.8471 30.4123L10.5831 27.4507Z" fill="white"/>
<path d="M2.86737 0.000244141H4.76936V1.86195H6.50936V0.000244141H8.41135V5.62803H6.50936V3.74194H4.76936V5.62803H2.86737V0.000244141ZM10.9133 1.86803H9.25135V0.000244141H14.5013V1.86803H12.8273V5.62803H10.9253V1.86803H10.9133ZM15.3233 0.000244141H17.3063L18.5273 1.98079L19.7453 0.000244141H21.7283V5.62803H19.8353V2.83699L18.5273 4.83885H18.4943L17.1833 2.83699V5.62803H15.3233V0.000244141ZM22.6763 0.000244141H24.5783V3.7724H27.2513V5.62803H22.6763V0.000244141Z" fill="black"/>
<path d="M15.0195 25.5981H19.6275L19.1925 30.4032L15.0195 31.5275V35.385L22.6935 33.2795L22.7475 32.6519L23.6294 22.9015L23.7194 21.9051H15.0195V25.5981ZM15.0195 18.0872H24.0584L24.1334 17.2524L24.3044 15.3754L24.3944 14.379H15.0195V18.0872Z" fill="white"/>
</g>
</svg>
