<svg width="31" height="29" viewBox="0 0 31 29" fill="none" xmlns="http://www.w3.org/2000/svg">
<mask id="mask0_304_48" style="mask-type:luminance" maskUnits="userSpaceOnUse" x="0" y="0" width="31" height="29">
<path d="M30.272 0.00653076H0.271973V28.6696H30.272V0.00653076Z" fill="white"/>
</mask>
<g mask="url(#mask0_304_48)">
<path d="M25.292 0.00653076H5.25197C2.50097 0.00653076 0.271973 2.18818 0.271973 4.88173V23.7548C0.271973 26.4453 2.50097 28.63 5.25197 28.63H25.292C28.04 28.63 30.272 26.4484 30.272 23.7548V4.88173C30.272 2.18818 28.04 0.00653076 25.292 0.00653076Z" fill="#49021F"/>
<path d="M11.165 7.49605V20.0375C11.165 20.1685 11.105 20.2355 10.985 20.2355H8.54902C8.44102 20.2355 8.38701 20.1685 8.39001 20.0375V7.49605C8.39001 7.3894 8.45 7.3376 8.57 7.3376H11.006C11.0258 7.33313 11.0462 7.33313 11.066 7.3376C11.0858 7.344 11.1042 7.35436 11.12 7.36807C11.1352 7.38158 11.1475 7.39819 11.156 7.41682C11.1603 7.43588 11.1603 7.45566 11.156 7.47472L11.165 7.49605ZM18.5 20.4305H18.371C17.4423 20.4477 16.521 20.2596 15.671 19.879C14.8932 19.5298 14.2376 18.9498 13.79 18.2154C13.3206 17.396 13.0838 16.4605 13.106 15.5127V15.4304C13.0983 14.5229 13.3348 13.6306 13.79 12.8496C14.2545 12.0652 14.9203 11.4238 15.716 10.994L15.782 10.9605C16.7613 10.4629 17.8465 10.219 18.941 10.2505H19.241H19.331L19.529 10.2688H19.583V6.41132C19.583 6.31991 19.625 6.2742 19.703 6.2742H22.241C22.2569 6.27115 22.2732 6.27115 22.289 6.2742C22.3047 6.2804 22.3189 6.28973 22.331 6.30162C22.3434 6.31149 22.3519 6.32554 22.355 6.34123C22.3595 6.35716 22.3595 6.37406 22.355 6.38999V18.0265C22.355 18.2702 22.355 18.5109 22.385 18.7547L22.403 19.0076L22.421 19.2453V19.4646C22.4213 19.5053 22.411 19.5452 22.391 19.5804C22.3698 19.6168 22.337 19.6448 22.298 19.6597C21.6431 19.928 20.9624 20.1261 20.267 20.2508C19.6726 20.3583 19.0707 20.4174 18.467 20.4275L18.5 20.4305ZM19.598 17.993V12.612C19.4889 12.5823 19.3775 12.5619 19.265 12.551C19.13 12.551 18.992 12.5327 18.854 12.5327C18.3674 12.5245 17.8852 12.6287 17.444 12.8374C17.0203 13.0446 16.6565 13.3595 16.388 13.7515C16.0939 14.2129 15.9502 14.7565 15.977 15.3055C15.9658 15.7381 16.0382 16.1687 16.19 16.573C16.3147 16.8993 16.507 17.1944 16.754 17.4384C16.9954 17.6661 17.2848 17.8349 17.6 17.932C17.9352 18.037 18.2842 18.0894 18.635 18.0874C18.825 18.0874 18.999 18.0813 19.157 18.0691C19.2857 18.0602 19.4133 18.0388 19.538 18.0051L19.598 17.993Z" fill="#FF3366"/>
</g>
</svg>
