<svg width="31" height="31" viewBox="0 0 31 31" fill="none" xmlns="http://www.w3.org/2000/svg">
<path d="M23.2815 4.18878e-05H7.34255C6.42224 -0.0031647 5.51032 0.177761 4.65886 0.532504C3.8074 0.887247 3.03308 1.40887 2.3801 2.06755C1.72711 2.72624 1.20826 3.50909 0.853162 4.37143C0.498067 5.23378 0.313693 6.15874 0.310547 7.09346V23.1664C0.313693 24.1011 0.498067 25.026 0.853162 25.8884C1.20826 26.7507 1.72711 27.5336 2.3801 28.1923C3.03308 28.851 3.8074 29.3726 4.65886 29.7273C5.51032 30.0821 6.42224 30.263 7.34255 30.2598H23.2815C24.2017 30.263 25.1135 30.082 25.9648 29.7272C26.816 29.3725 27.5902 28.8508 28.2429 28.1921C28.8957 27.5334 29.4142 26.7505 29.769 25.8881C30.1238 25.0258 30.3078 24.1009 30.3105 23.1664V7.09346C30.3078 6.15888 30.1238 5.234 29.769 4.37168C29.4142 3.50935 28.8957 2.72646 28.2429 2.06774C27.5902 1.40901 26.816 0.887358 25.9648 0.532578C25.1135 0.177798 24.2017 -0.00316429 23.2815 4.18878e-05Z" fill="#F7DF1E"/>
<path d="M8.20054 25.2871L10.4955 23.8855C10.9395 24.6777 11.3415 25.3481 12.2955 25.3481C13.2495 25.3481 13.7955 24.9824 13.7955 23.5595V13.8914H16.6125V23.5991C16.6125 26.5455 14.9025 27.8862 12.4125 27.8862C10.1595 27.8862 8.84855 26.707 8.18555 25.2871M18.1545 24.9824L20.4495 23.6417C21.0495 24.6351 21.8385 25.3663 23.2275 25.3663C24.3975 25.3663 25.1415 24.7783 25.1415 23.9647C25.1415 22.9927 24.3765 22.6454 23.0865 22.0786L22.3815 21.7739C20.3475 20.8995 19.0005 19.8025 19.0005 17.4868C19.0005 15.3539 20.6115 13.7299 23.1285 13.7299C24.9285 13.7299 26.2095 14.3606 27.1365 16.006L24.9405 17.4259C24.4575 16.5544 23.9325 16.2071 23.1405 16.2071C22.3485 16.2071 21.7905 16.7372 21.7905 17.4259C21.7905 18.279 22.3155 18.6233 23.5215 19.1535L24.2265 19.4582C26.6265 20.4942 27.9735 21.5485 27.9735 23.9251C27.9735 26.4846 25.9785 27.8862 23.2995 27.8862C20.6865 27.8862 18.9945 26.6247 18.1695 24.9824H18.1545Z" fill="black"/>
</svg>
