<svg width="82" height="30" viewBox="0 0 82 30" fill="none" xmlns="http://www.w3.org/2000/svg">
<path d="M1.44023 28.7216C1.04488 28.7216 0.705997 28.5511 0.423598 28.2102C0.141199 27.8125 0 27.4432 0 27.1023C0 26.875 0.0564797 26.5909 0.169439 26.25C0.677757 25.2273 1.10136 23.9773 1.44023 22.5C1.77911 21.0227 2.03327 19.517 2.20271 17.983C2.37215 16.4489 2.45687 15.142 2.45687 14.0625C2.45687 12.983 2.34391 11.8182 2.11799 10.5682C1.94855 9.26136 1.41199 8.26705 0.508318 7.58523C0.282399 7.47159 0.169439 7.35796 0.169439 7.24432C0.169439 7.13068 0.225919 7.07386 0.338879 7.07386C0.508318 7.07386 0.649517 7.13068 0.762477 7.24432C1.77911 7.75568 2.54159 8.60795 3.04991 9.80114C3.6147 10.9943 4.01006 12.2727 4.23598 13.6364C4.4619 14.9432 4.57486 16.1364 4.57486 17.2159C4.57486 18.2955 4.4619 19.4886 4.23598 20.7955C4.06654 22.0455 3.72766 23.1818 3.21935 24.2045C4.80078 23.125 6.21277 21.7898 7.45533 20.1989C8.75436 18.5511 9.9122 16.9318 10.9288 15.3409C11.2112 14.8864 11.6348 14.4034 12.1996 13.892C12.7644 13.3239 13.3292 13.0398 13.894 13.0398C14.2894 13.0398 14.4871 13.2955 14.4871 13.8068C14.4871 14.0909 14.4306 14.3466 14.3176 14.5739C13.6399 16.8466 13.301 19.3182 13.301 21.9886C13.301 22.5 13.3292 23.125 13.3857 23.8636C13.4987 24.6023 13.6963 25.2557 13.9787 25.8239C14.3176 26.392 14.8542 26.6761 15.5884 26.6761C15.9838 26.6761 16.4074 26.5909 16.8592 26.4205C17.311 26.1932 17.6499 25.9091 17.8758 25.5682C17.9888 25.4545 18.1018 25.3977 18.2147 25.3977C18.2712 25.3977 18.2994 25.4545 18.2994 25.5682C18.2994 26.1364 17.9041 26.5625 17.1134 26.8466C16.3227 27.1307 15.7014 27.2727 15.2495 27.2727C13.7811 27.2727 12.6515 26.5909 11.8607 25.2273C11.07 23.8636 10.6747 22.5284 10.6747 21.2216C10.6747 20.7102 10.7312 20.1989 10.8441 19.6875C11.0136 19.1761 11.0983 18.6648 11.0983 18.1534C11.0983 18.0398 11.07 17.8693 11.0136 17.642C11.0136 17.4148 10.9288 17.3011 10.7594 17.3011C10.6464 17.3011 10.2228 17.7273 9.4886 18.5795C8.75436 19.4318 7.90717 20.4545 6.94701 21.6477C5.98685 22.8409 5.11142 23.9489 4.3207 24.9716C3.58646 25.9943 3.13463 26.6477 2.96519 26.9318C2.79575 27.3295 2.62631 27.7273 2.45687 28.125C2.28743 28.5227 1.94855 28.7216 1.44023 28.7216Z" fill="#4B0082"/>
<path d="M23.2814 29.7443C22.3212 29.7443 21.5305 29.2898 20.9092 28.3807C20.3444 27.4148 19.9208 26.2784 19.6384 24.9716C19.356 23.608 19.1583 22.3011 19.0454 21.0511C18.9889 19.8011 18.9607 18.8352 18.9607 18.1534C18.9607 17.4148 18.9607 16.7045 18.9607 16.0227C19.0171 15.2841 19.1301 14.5739 19.2995 13.892C19.4125 13.4375 19.6384 12.9261 19.9773 12.358C20.3726 11.7898 20.8527 11.5057 21.4175 11.5057C21.9258 11.5057 22.18 11.7898 22.18 12.358L22.0953 12.6989C21.9823 13.9489 21.8411 15.2273 21.6717 16.5341C21.5022 17.8409 21.4175 19.1477 21.4175 20.4545C21.4175 21.0795 21.4458 21.9034 21.5022 22.9261C21.5587 23.9489 21.6999 24.9432 21.9258 25.9091C22.2082 26.8182 22.5754 27.5284 23.0272 28.0398C23.1402 28.267 23.3096 28.3807 23.5355 28.3807C24.0438 28.3807 24.6086 28.0114 25.2299 27.2727C25.9077 26.5341 26.3877 25.9943 26.6701 25.6534C27.7997 24.2898 28.6469 23.0114 29.2117 21.8182C29.833 20.625 30.426 19.233 30.9908 17.642C30.9908 17.358 31.132 17.2159 31.4144 17.2159C31.5839 17.2159 31.6686 17.358 31.6686 17.642C31.6686 17.6989 31.6404 17.7557 31.5839 17.8125C31.5839 17.8125 31.5839 17.8693 31.5839 17.983C30.6237 21.3352 29.0423 24.3466 26.8396 27.017C26.4442 27.5284 25.9359 28.0966 25.3146 28.7216C24.6933 29.4034 24.0156 29.7443 23.2814 29.7443Z" fill="#4B0082"/>
<path d="M35.8999 29.233C35.674 29.233 35.1657 29.2045 34.375 29.1477C33.6408 29.0909 33.2172 28.9489 33.1042 28.7216L32.85 28.125C32.85 28.0114 32.963 27.9545 33.1889 27.9545C33.4148 27.8977 33.556 27.8693 33.6125 27.8693H36.4083C36.9166 27.8125 37.5379 27.6989 38.2721 27.5284C39.0063 27.3011 39.6558 26.9886 40.2206 26.5909C40.7854 26.1932 41.0678 25.6818 41.0678 25.0568C41.0678 24.6591 40.9266 24.3182 40.6442 24.0341C40.3618 23.75 40.0794 23.5227 39.797 23.3523C38.6675 22.6136 37.4531 21.7898 36.1541 20.8807C34.9115 19.9148 33.8667 18.8068 33.0195 17.5568C32.1723 16.3068 31.7487 14.9148 31.7487 13.3807C31.7487 11.8466 32.2288 10.3125 33.1889 8.77841C34.2056 7.1875 35.4763 5.73864 37.0013 4.43182C38.5827 3.06818 40.2206 1.98864 41.915 1.19318C43.6659 0.397727 45.2756 0 46.7441 0C47.7042 0 48.7208 0.284091 49.794 0.852274C50.9236 1.36364 51.4884 2.1875 51.4884 3.32386C51.4884 3.66477 51.3472 4.17614 51.0648 4.85795C50.8388 5.48296 50.5 5.79546 50.0481 5.79546C49.9352 5.79546 49.8504 5.71023 49.794 5.53977C49.794 5.3125 49.794 5.17046 49.794 5.11364C49.794 4.77273 49.8222 4.46023 49.8787 4.17614C49.9352 3.83523 49.9634 3.52273 49.9634 3.23864C49.9634 2.21591 49.4551 1.70455 48.4384 1.70455C47.6477 1.70455 46.6311 2.01705 45.3885 2.64205C44.146 3.21023 42.9317 3.89205 41.7456 4.6875C40.5595 5.42614 39.6558 6.07955 39.0346 6.64773C38.4133 7.27273 37.7073 8.03977 36.9166 8.94886C36.1259 9.80114 35.4481 10.7386 34.8833 11.7614C34.3185 12.7273 34.0361 13.6932 34.0361 14.6591C34.0361 15.8523 34.5162 16.9602 35.4763 17.983C36.4365 19.0057 37.5379 19.9432 38.7804 20.7955C40.0794 21.6477 41.209 22.4716 42.1692 23.267C43.1294 24.0625 43.6094 24.8864 43.6094 25.7386C43.6094 26.6477 43.1011 27.358 42.0845 27.8693C41.1243 28.3807 40.023 28.7216 38.7804 28.892C37.5943 29.1193 36.6342 29.233 35.8999 29.233Z" fill="#4B0082"/>
<path d="M62.5158 30C61.3297 30 60.6237 29.4318 60.3978 28.2955C60.1719 27.1591 60.0589 26.1364 60.0589 25.2273C60.0589 23.6364 60.1154 22.0739 60.2284 20.5398C60.3978 18.9489 60.539 17.358 60.652 15.767C60.4261 16.5625 60.0872 17.6705 59.6353 19.0909C59.24 20.5114 58.7317 21.9602 58.1104 23.4375C57.4891 24.9148 56.7831 26.1648 55.9924 27.1875C55.2017 28.2102 54.298 28.7216 53.2814 28.7216C52.6036 28.7216 52.0953 28.4375 51.7564 27.8693C51.4175 27.3011 51.1916 26.6477 51.0787 25.9091C51.0222 25.1136 50.9939 24.4886 50.9939 24.0341C50.9939 21.3636 51.5305 18.608 52.6036 15.767C53.6767 12.9261 54.9475 10.4545 56.416 8.35227C56.416 7.5 56.7266 6.61932 57.3479 5.71023C58.0257 4.80114 58.8164 3.97727 59.7201 3.23864C60.6237 2.5 61.4145 1.98864 62.0922 1.70455C62.4311 1.59091 62.7417 1.53409 63.0241 1.53409C63.3065 1.53409 63.5042 1.64773 63.6172 1.875C63.7866 2.10227 63.8713 2.35796 63.8713 2.64205C63.8713 2.86932 63.8431 3.125 63.7866 3.40909C63.7301 3.63636 63.6172 3.83523 63.4477 4.00568C62.9394 4.51705 62.4311 4.97159 61.9228 5.36932C61.4709 5.76705 60.9909 6.27841 60.4825 6.90341C59.3529 8.26705 58.1669 9.91477 56.9243 11.8466C55.7382 13.7784 54.7216 15.7955 53.8744 17.8977C53.0272 19.9432 52.6036 21.875 52.6036 23.6932C52.6036 23.9205 52.6318 24.375 52.6883 25.0568C52.7448 25.6818 52.8578 26.2784 53.0272 26.8466C53.2531 27.358 53.5638 27.6136 53.9591 27.6136C54.4674 27.6136 54.9193 27.3295 55.3146 26.7614C55.7665 26.1364 56.1054 25.625 56.3313 25.2273C56.9526 24.0909 57.5456 22.6705 58.1104 20.9659C58.6752 19.2614 59.1835 17.5284 59.6353 15.767C60.0872 14.0057 60.4261 12.5 60.652 11.25C60.7649 10.8523 60.8497 10.483 60.9061 10.142C60.9626 9.74432 61.0191 9.34659 61.0756 8.94886C61.1321 8.77841 61.1603 8.57955 61.1603 8.35227C61.1603 8.06818 61.1885 7.8125 61.245 7.58523C61.358 7.24432 61.6121 7.07386 62.0075 7.07386C62.2899 7.07386 62.544 7.15909 62.77 7.32955C62.9959 7.5 63.1088 7.72727 63.1088 8.01136V8.18182C63.1088 10.1136 62.9676 12.017 62.6852 13.892C62.4593 15.767 62.3464 17.6989 62.3464 19.6875C62.3464 20.8239 62.3746 22.017 62.4311 23.267C62.4876 24.517 62.6288 25.7386 62.8547 26.9318C62.8547 27.1023 62.9112 27.358 63.0241 27.6989C63.1371 28.0398 63.3348 28.2102 63.6172 28.2102C63.7866 28.2102 63.956 28.1534 64.1255 28.0398C64.3514 27.8693 64.4926 27.7557 64.5491 27.6989C65.9611 26.5057 67.1754 24.9716 68.192 23.0966C69.2087 21.1648 70.0276 19.3466 70.6489 17.642C70.8183 17.358 70.9595 17.2159 71.0725 17.2159C71.2419 17.2159 71.3267 17.358 71.3267 17.642V17.983C71.0443 18.9489 70.5077 20.2557 69.717 21.9034C68.9263 23.4943 68.0508 25.0284 67.0907 26.5057C66.187 27.9261 65.3116 28.892 64.4644 29.4034C63.8996 29.8011 63.25 30 62.5158 30Z" fill="#4B0082"/>
<path d="M72.4267 27.5284C72.0313 27.5284 71.6642 27.3295 71.3253 26.9318C70.9864 26.5341 70.817 26.1364 70.817 25.7386C70.817 25.5682 70.8735 25.3693 70.9864 25.142C71.6077 23.3807 72.116 21.3636 72.5114 19.0909C72.9068 16.7614 73.1044 14.6875 73.1044 12.8693C73.1044 11.7898 72.9915 10.6534 72.7656 9.46023C72.5961 8.21023 72.0596 7.21591 71.1559 6.47727C70.9864 6.47727 70.9017 6.36364 70.9017 6.13637C70.9017 6.07955 70.9582 6.05114 71.0712 6.05114C71.2406 6.05114 71.3818 6.10796 71.4948 6.22159C72.7938 7.01705 73.6128 8.32386 73.9516 10.142C74.347 11.9034 74.5447 13.4659 74.5447 14.8295C74.5447 16.1364 74.46 17.4716 74.2905 18.8352C74.1211 20.1989 73.8952 21.5341 73.6128 22.8409V23.267C73.6128 23.267 73.6128 23.3239 73.6128 23.4375C73.6692 23.4943 73.7257 23.5227 73.7822 23.5227C73.8952 23.5227 73.9799 23.4659 74.0363 23.3523C74.0928 23.2386 74.1493 23.1534 74.2058 23.0966C75.053 21.7898 75.759 20.3693 76.3238 18.8352C76.9451 17.2443 77.5381 15.7102 78.1029 14.233C78.2159 13.7784 78.4418 13.2955 78.7807 12.7841C79.176 12.2159 79.6561 11.9318 80.2209 11.9318C80.6727 11.9318 80.9269 12.1591 80.9834 12.6136C81.0963 13.0114 81.1528 13.3523 81.1528 13.6364C81.1528 14.3182 81.294 14.9148 81.5764 15.4261C81.8588 15.9375 82 16.2784 82 16.4489C82 16.6761 81.8588 16.8182 81.5764 16.875C81.294 16.875 81.0963 16.875 80.9834 16.875C80.588 16.875 80.1927 16.7898 79.7973 16.6193C79.4584 16.392 79.0913 16.2784 78.6959 16.2784C78.5265 16.2784 78.3571 16.3636 78.1876 16.5341C77.8487 17.1023 77.5381 17.6989 77.2557 18.3239C76.9733 18.9489 76.6909 19.5455 76.4085 20.1136C76.0132 21.0227 75.5613 21.9602 75.053 22.9261C74.6012 23.892 74.1776 24.858 73.7822 25.8239C73.6692 26.1648 73.5563 26.5057 73.4433 26.8466C73.3868 27.1307 73.1609 27.358 72.7656 27.5284H72.4267Z" fill="#4B0082"/>
<path d="M20.4856 3.49433C20.768 3.60797 21.0222 3.66479 21.2481 3.66479C21.6999 3.66479 22.3212 3.46592 23.1119 3.0682C23.9026 2.67047 24.298 2.15911 24.298 1.53411C24.298 1.25001 24.1568 1.05115 23.8744 0.937514C23.6485 0.823878 23.3943 0.767059 23.1119 0.767059C22.6601 0.767059 22.0388 0.965923 21.2481 1.36365C20.4574 1.76138 20.062 2.27274 20.062 2.89774C20.062 3.18183 20.2032 3.3807 20.4856 3.49433Z" fill="#4B0082"/>
</svg>
