<svg width="48" height="31" viewBox="0 0 48 31" fill="none" xmlns="http://www.w3.org/2000/svg">
<path d="M17 6.14516L17 6C17 3.23858 14.7614 1 12 1L6 1C3.23858 0.999999 1 3.23857 1 6L1 25C1 27.7614 3.23858 30 6 30L12.3226 30C14.9058 30 17 27.9058 17 25.3226V25.3226" stroke="#4B0082" stroke-width="1.2"/>
<path d="M31.0625 15.5001H42C44.7614 15.5001 47 17.7386 47 20.5001V25.0001C47 27.7615 44.7614 30.0001 42 30.0001H22C19.2386 30.0001 17 27.7615 17 25.0001V22.5001" stroke="#643CED" stroke-width="1.2"/>
<path d="M24 1L22 1C19.2386 0.999999 17 3.23857 17 6L17 25C17 27.7614 19.2386 30 22 30L26 30C28.7614 30 31 27.7614 31 25L31 15" stroke="#4B0082" stroke-width="1.2"/>
<path d="M17 8V10.5C17 13.2614 19.2386 15.5 22 15.5H42C44.7614 15.5 47 13.2614 47 10.5V6C47 3.23858 44.7614 1 42 1H31.0625H24H22C19.2386 1 17 3.23858 17 6V7" stroke="#643CED" stroke-width="1.2"/>
<path d="M17 7V8" stroke="#643CED" stroke-width="1.2"/>
</svg>
