<svg width="30" height="31" viewBox="0 0 30 31" fill="none" xmlns="http://www.w3.org/2000/svg">
<mask id="mask0_676_14" style="mask-type:luminance" maskUnits="userSpaceOnUse" x="0" y="0" width="30" height="31">
<path d="M30 0.308105H0V30.5648H30V0.308105Z" fill="white"/>
</mask>
<g mask="url(#mask0_676_14)">
<path d="M22.968 0.307975H7.032C6.11184 0.304368 5.19999 0.484912 4.34855 0.839322C3.49711 1.19373 2.72276 1.71505 2.06974 2.37349C1.41672 3.03194 0.897815 3.81461 0.542683 4.67678C0.187552 5.53896 0.00314576 6.46374 0 7.39832V23.4743C0.00314576 24.4089 0.187552 25.3336 0.542683 26.1958C0.897815 27.058 1.41672 27.8407 2.06974 28.4991C2.72276 29.1576 3.49711 29.6789 4.34855 30.0333C5.19999 30.3877 6.11184 30.5683 7.032 30.5647H22.968C23.8882 30.5683 24.8 30.3877 25.6515 30.0333C26.5029 29.6789 27.2772 29.1576 27.9303 28.4991C28.5833 27.8407 29.1022 27.058 29.4573 26.1958C29.8124 25.3336 29.9969 24.4089 30 23.4743V7.39832C29.9969 6.46374 29.8124 5.53896 29.4573 4.67678C29.1022 3.81461 28.5833 3.03194 27.9303 2.37349C27.2772 1.71505 26.5029 1.19373 25.6515 0.839322C24.8 0.484912 23.8882 0.304368 22.968 0.307975Z" fill="#00005B"/>
<path d="M6.32703 21.8961V8.91282C6.32703 8.82446 6.36603 8.7757 6.45303 8.7757C6.66603 8.7757 6.86703 8.7757 7.15203 8.7757C7.43703 8.7757 7.75203 8.77569 8.10303 8.74827C8.45403 8.72085 8.80203 8.74828 9.19203 8.72391C9.58203 8.69953 9.95402 8.72391 10.329 8.72391C11.203 8.69821 12.0745 8.83026 12.903 9.11391C13.5289 9.32921 14.1005 9.68188 14.577 10.1468C14.9798 10.5542 15.2919 11.0447 15.492 11.585C15.6796 12.1106 15.776 12.6653 15.777 13.2243C15.8155 14.1775 15.5527 15.1181 15.027 15.9087C14.5246 16.6153 13.8241 17.1515 13.017 17.4475C12.1112 17.7576 11.1586 17.9031 10.203 17.8771C9.90303 17.8771 9.70202 17.8771 9.57902 17.8771C9.45602 17.8771 9.27903 17.8771 9.04203 17.8771V21.9235C9.04453 21.9443 9.04294 21.9655 9.03733 21.9857C9.03173 22.0059 9.02224 22.0247 9.0094 22.0412C8.99656 22.0576 8.98064 22.0713 8.96255 22.0814C8.94446 22.0916 8.92456 22.0979 8.90402 22.1002H6.47703C6.37803 22.1002 6.32703 22.0484 6.32703 21.9357V21.8961ZM9.05402 11.2316V15.4699C9.22802 15.4699 9.39002 15.4943 9.54002 15.4943H10.203C10.6909 15.4951 11.1758 15.418 11.64 15.2658C12.0387 15.1496 12.3953 14.9177 12.666 14.5985C12.9443 14.227 13.0816 13.7663 13.053 13.3005C13.0617 12.9051 12.9575 12.5157 12.753 12.1792C12.5451 11.851 12.2391 11.599 11.88 11.4601C11.41 11.2749 10.9078 11.1889 10.404 11.2072C10.08 11.2072 9.80402 11.2072 9.55502 11.2072C9.38765 11.201 9.22005 11.2091 9.05402 11.2316ZM17.577 11.9781H19.779C19.838 11.9789 19.8951 11.9989 19.9421 12.0351C19.989 12.0712 20.0234 12.1218 20.04 12.1792C20.0783 12.2769 20.1035 12.3794 20.115 12.4839C20.139 12.6119 20.166 12.749 20.178 12.8739C20.19 12.9988 20.202 13.1786 20.202 13.3279C20.5784 12.8865 21.0321 12.5197 21.54 12.2462C22.1213 11.9202 22.775 11.7503 23.439 11.7526C23.4598 11.7496 23.4809 11.7509 23.5011 11.7564C23.5214 11.7619 23.5403 11.7715 23.5568 11.7845C23.5733 11.7976 23.5871 11.8139 23.5973 11.8325C23.6074 11.8511 23.6138 11.8716 23.616 11.8928V14.4005C23.616 14.501 23.553 14.5406 23.415 14.5406C22.9616 14.5241 22.508 14.5661 22.065 14.6656C21.704 14.7409 21.352 14.8553 21.015 15.0068C20.7738 15.1163 20.5574 15.275 20.379 15.473V21.8961C20.379 22.021 20.328 22.0728 20.214 22.0728H17.754C17.7309 22.0767 17.7073 22.0758 17.6845 22.0701C17.6618 22.0645 17.6404 22.0543 17.6216 22.0401C17.6028 22.0258 17.5871 22.0079 17.5753 21.9874C17.5635 21.9668 17.5559 21.944 17.553 21.9204V14.888C17.553 14.5833 17.553 14.2786 17.553 13.9434C17.553 13.6082 17.553 13.2883 17.526 12.9592C17.499 12.6301 17.502 12.3925 17.478 12.103C17.4745 12.0882 17.474 12.0728 17.4765 12.0578C17.479 12.0427 17.4845 12.0284 17.4926 12.0156C17.5008 12.0027 17.5114 11.9917 17.5238 11.9832C17.5363 11.9747 17.5503 11.9688 17.565 11.9659C17.565 11.9659 17.565 11.9507 17.577 11.9659V11.9781Z" fill="#9999FF"/>
</g>
</svg>
