<svg width="31" height="31" viewBox="0 0 31 31" fill="none" xmlns="http://www.w3.org/2000/svg">
<mask id="mask0_674_22" style="mask-type:luminance" maskUnits="userSpaceOnUse" x="0" y="0" width="31" height="31">
<path d="M30.5248 0H0.52478V30.2567H30.5248V0Z" fill="white"/>
</mask>
<g mask="url(#mask0_674_22)">
<path d="M23.4928 -0.000130092H7.55678C6.63662 -0.00373781 5.72477 0.176825 4.87333 0.531235C4.02189 0.885645 3.24754 1.40696 2.59451 2.0654C1.94149 2.72384 1.4226 3.50651 1.06747 4.36869C0.712336 5.23087 0.527926 6.15565 0.52478 7.09023V23.1662C0.527926 24.1008 0.712336 25.0256 1.06747 25.8878C1.4226 26.7499 1.94149 27.5326 2.59451 28.191C3.24754 28.8495 4.02189 29.3708 4.87333 29.7252C5.72477 30.0796 6.63662 30.2602 7.55678 30.2566H23.4928C24.4129 30.2602 25.3248 30.0796 26.1762 29.7252C27.0277 29.3708 27.802 28.8495 28.455 28.191C29.1081 27.5326 29.627 26.7499 29.9821 25.8878C30.3372 25.0256 30.5216 24.1008 30.5248 23.1662V7.09023C30.5216 6.15565 30.3372 5.23087 29.9821 4.36869C29.627 3.50651 29.1081 2.72384 28.455 2.0654C27.802 1.40696 27.0277 0.885645 26.1762 0.531235C25.3248 0.176825 24.4129 -0.00373781 23.4928 -0.000130092Z" fill="#001E36"/>
<path d="M7.27368 21.0426V8.07462C7.27368 7.98626 7.31269 7.93751 7.39969 7.93751C7.61268 7.93751 7.81068 7.93751 8.09868 7.93751C8.38668 7.93751 8.69868 7.93751 9.04968 7.91008C9.40068 7.88266 9.74868 7.91009 10.1357 7.88571C10.5227 7.86134 10.9007 7.88571 11.2757 7.88571C12.1496 7.86002 13.0211 7.99207 13.8497 8.27573C14.4762 8.49118 15.0479 8.84499 15.5237 9.3117C15.9218 9.71876 16.2288 10.2083 16.4237 10.7468C16.6177 11.2711 16.7193 11.826 16.7237 12.3861C16.7621 13.3393 16.4993 14.2799 15.9737 15.0705C15.4709 15.778 14.7692 16.3144 13.9607 16.6092C13.0559 16.9196 12.1043 17.0651 11.1497 17.0389C10.8497 17.0389 10.6487 17.0389 10.5257 17.0389C10.4027 17.0389 10.2257 17.0389 9.98568 17.0389V21.0853C9.98906 21.106 9.98819 21.1272 9.98312 21.1476C9.97805 21.1679 9.96889 21.187 9.95621 21.2036C9.94354 21.2202 9.92761 21.234 9.90945 21.244C9.89129 21.254 9.87128 21.2602 9.85067 21.262H7.42368C7.32468 21.2071 7.27368 21.1553 7.27368 21.0426ZM10.0007 10.3629V14.6013C10.1747 14.6013 10.3367 14.6256 10.4867 14.6256H11.1497C11.6375 14.6262 12.1224 14.549 12.5867 14.3971C12.985 14.2801 13.3414 14.0483 13.6127 13.7298C13.8909 13.3584 14.0283 12.8976 13.9997 12.4318C14.0084 12.0365 13.9042 11.647 13.6997 11.3105C13.4909 10.9818 13.1839 10.7298 12.8237 10.5914C12.3548 10.406 11.8535 10.3199 11.3507 10.3385C11.0237 10.3385 10.7507 10.3385 10.4987 10.3385C10.3323 10.3324 10.1657 10.3405 10.0007 10.3629ZM24.5236 13.8304C24.1458 13.6306 23.7417 13.487 23.3236 13.4038C22.8649 13.2973 22.3962 13.2421 21.9256 13.2393C21.6727 13.2301 21.4198 13.2599 21.1756 13.3276C21.0198 13.3593 20.8809 13.4482 20.7856 13.5775C20.7244 13.6808 20.6903 13.7983 20.6866 13.9187C20.6929 14.0393 20.737 14.1547 20.8126 14.2478C20.9301 14.388 21.0739 14.503 21.2356 14.586C21.5356 14.7384 21.8356 14.8907 22.1356 15.0035C22.8103 15.2314 23.4566 15.5382 24.0616 15.9176C24.4706 16.1777 24.8097 16.5368 25.0486 16.9627C25.2538 17.3642 25.3569 17.8115 25.3486 18.2638C25.3588 18.8601 25.188 19.4452 24.8596 19.9396C24.5107 20.4433 24.0249 20.8329 23.4616 21.0609C22.7421 21.3491 21.9728 21.4869 21.1996 21.4661C20.6287 21.468 20.059 21.4129 19.4986 21.3016C19.0577 21.2251 18.6289 21.0888 18.2236 20.8963C18.18 20.8752 18.1435 20.8413 18.1189 20.7989C18.0943 20.7566 18.0827 20.7078 18.0857 20.6587V18.4649C18.084 18.4432 18.0879 18.4215 18.0968 18.4018C18.1057 18.3821 18.1194 18.365 18.1366 18.3521C18.1523 18.339 18.1719 18.3318 18.1921 18.3318C18.2124 18.3318 18.232 18.339 18.2477 18.3521C18.7304 18.6356 19.2537 18.8412 19.7986 18.9615C20.2804 19.0899 20.7766 19.1544 21.2746 19.1535C21.6283 19.1728 21.9817 19.1125 22.3096 18.9767C22.41 18.9303 22.4952 18.8558 22.5552 18.7619C22.6153 18.6679 22.6477 18.5586 22.6486 18.4466C22.6402 18.3445 22.6087 18.2459 22.5567 18.1581C22.5047 18.0704 22.4335 17.9961 22.3486 17.9408C21.9662 17.6933 21.5551 17.4947 21.1246 17.3497C20.496 17.1249 19.8989 16.8176 19.3486 16.4356C18.9567 16.1548 18.6317 15.7883 18.3977 15.363C18.1949 14.9661 18.0919 14.5244 18.0977 14.0772C18.0995 13.5393 18.2468 13.0123 18.5236 12.5537C18.8417 12.0456 19.2982 11.6423 19.8376 11.3928C20.5305 11.0721 21.2878 10.9207 22.0486 10.951C22.5676 10.9521 23.0858 10.9898 23.5996 11.0637C23.9689 11.1186 24.3298 11.2209 24.6736 11.3684C24.701 11.3777 24.7262 11.3925 24.7479 11.4118C24.7695 11.4312 24.7871 11.4548 24.7996 11.4812C24.8134 11.5298 24.8215 11.5799 24.8236 11.6305V13.6872C24.824 13.7117 24.8185 13.7358 24.8075 13.7576C24.7965 13.7794 24.7804 13.7981 24.7606 13.8121C24.7244 13.8314 24.6847 13.843 24.644 13.8461C24.6032 13.8492 24.5623 13.8439 24.5236 13.8304Z" fill="#31A8FF"/>
</g>
</svg>
