<svg width="30" height="30" viewBox="0 0 30 30" fill="none" xmlns="http://www.w3.org/2000/svg">
<path d="M22.9688 0H7.03125C3.148 0 0 3.148 0 7.03125V22.9688C0 26.852 3.148 30 7.03125 30H22.9688C26.852 30 30 26.852 30 22.9688V7.03125C30 3.148 26.852 0 22.9688 0Z" fill="#242938"/>
<path d="M15.0001 17.2208C16.2076 17.2208 17.1863 16.242 17.1863 15.0346C17.1863 13.8272 16.2076 12.8483 15.0001 12.8483C13.7927 12.8483 12.8138 13.8272 12.8138 15.0346C12.8138 16.242 13.7927 17.2208 15.0001 17.2208Z" fill="#00D8FF"/>
<path d="M15.0002 10.5894C17.9355 10.5894 20.6624 11.0106 22.7184 11.7185C25.1957 12.5713 26.7188 13.864 26.7188 15.0346C26.7188 16.2544 25.1046 17.6277 22.4443 18.5091C20.4332 19.1754 17.7866 19.5232 15.0002 19.5232C12.1434 19.5232 9.43816 19.1967 7.40426 18.5017C4.83105 17.6222 3.28125 16.2312 3.28125 15.0346C3.28125 13.8735 4.73555 12.5907 7.17797 11.7393C9.24164 11.0197 12.0357 10.5894 14.9998 10.5894H15.0002Z" stroke="#00D8FF"/>
<path d="M11.1305 12.8248C12.597 10.282 14.324 8.13023 15.9644 6.70289C17.9407 4.98293 19.8215 4.30933 20.8354 4.89398C21.8921 5.50336 22.2754 7.58789 21.71 10.3327C21.2828 12.4077 20.2617 14.874 18.8696 17.2878C17.4424 19.7626 15.8082 21.943 14.1902 23.3572C12.1428 25.1469 10.1634 25.7946 9.12687 25.1968C8.12105 24.6172 7.73644 22.7163 8.21901 20.1751C8.62671 18.0279 9.64987 15.3925 11.1301 12.8248H11.1305Z" stroke="#00D8FF"/>
<path d="M11.1342 17.2943C9.66359 14.7544 8.66234 12.1831 8.24445 10.0491C7.74136 7.47786 8.09703 5.51204 9.11011 4.92563C10.1659 4.31438 12.1631 5.02337 14.2586 6.88407C15.843 8.29079 17.4699 10.4068 18.866 12.8183C20.2973 15.2907 21.37 17.7956 21.7873 19.9036C22.3154 22.5713 21.888 24.6095 20.8524 25.2089C19.8477 25.7906 18.0089 25.1748 16.0482 23.4875C14.3916 22.0621 12.6193 19.8595 11.1342 17.2943Z" stroke="#00D8FF"/>
</svg>
