<svg width="31" height="29" viewBox="0 0 31 29" fill="none" xmlns="http://www.w3.org/2000/svg">
<mask id="mask0_674_10" style="mask-type:luminance" maskUnits="userSpaceOnUse" x="0" y="0" width="31" height="29">
<path d="M30.0176 0H0.0176392V28.5748H30.0176V0Z" fill="white"/>
</mask>
<g mask="url(#mask0_674_10)">
<path d="M25.0376 0H4.99764C2.24664 0 0.0176392 2.17555 0.0176392 4.8569V23.672C0.0176392 26.3564 2.24664 28.5289 4.99764 28.5289H25.0376C27.7856 28.5289 30.0176 26.3564 30.0176 23.672V4.8569C30.0176 2.17555 27.7856 0 25.0376 0Z" fill="#470137"/>
<path d="M15.7894 7.50124L12.0364 13.5282L16.0414 19.9269C16.0663 19.9723 16.0738 20.0255 16.0624 20.0762C16.0624 20.0975 16.0414 20.1006 16.0204 20.1036H15.9694H15.9214H12.9754C12.8194 20.1036 12.7084 20.0793 12.6394 19.9665C12.3724 19.4607 12.1054 18.9519 11.8354 18.443C11.5924 17.9921 11.3464 17.5442 11.0914 17.0993L10.9804 16.9012C10.6804 16.3741 10.3804 15.8439 10.0804 15.3107H10.0594C9.78941 15.8409 9.51041 16.3619 9.22541 16.883C8.94041 17.404 8.65241 17.925 8.37041 18.443C8.08841 18.961 7.8004 19.4729 7.5064 19.9848C7.4853 20.0288 7.451 20.065 7.40841 20.088C7.36583 20.111 7.31715 20.1196 7.2694 20.1128H4.45541H4.4134C4.3924 20.1128 4.3804 20.1128 4.3744 20.0762C4.36729 20.0283 4.37798 19.9794 4.4044 19.9391L8.28941 13.7171L4.51841 7.48296C4.47941 7.43116 4.4704 7.3885 4.4974 7.35499C4.51213 7.33842 4.53069 7.32586 4.5514 7.31842C4.57418 7.31383 4.59763 7.31383 4.6204 7.31842H7.45541C7.51788 7.3146 7.5804 7.32501 7.6384 7.34889C7.68618 7.37425 7.72732 7.4108 7.7584 7.45554C8.0024 7.97962 8.27041 8.50269 8.56241 9.02474C8.86241 9.54578 9.16241 10.0638 9.46241 10.5757C9.76241 11.0876 10.0414 11.5995 10.2964 12.1266H10.3174C10.5814 11.5995 10.8514 11.0754 11.1334 10.5574C11.4154 10.0394 11.6884 9.53359 11.9764 9.0156C12.2644 8.49761 12.5404 7.99181 12.8134 7.4921C12.828 7.44254 12.8561 7.39817 12.8944 7.36413C12.9437 7.33937 12.9987 7.32883 13.0534 7.33366H15.6904C15.7138 7.32597 15.739 7.32597 15.7624 7.33366C15.7856 7.34255 15.8055 7.35851 15.8194 7.37936C15.8267 7.40213 15.8267 7.42668 15.8194 7.44944C15.8166 7.47419 15.8048 7.49699 15.7864 7.51343L15.7894 7.50124ZM21.7024 20.3596H21.5644C20.636 20.3763 19.7151 20.1892 18.8644 19.8111C18.0874 19.462 17.432 18.8833 16.9834 18.1505C16.5139 17.3356 16.2771 16.4039 16.2994 15.46V15.3747C16.2917 14.4701 16.5282 13.5806 16.9834 12.803C17.4471 12.0206 18.1119 11.3812 18.9064 10.9535L18.9754 10.9169C19.9554 10.4218 21.0403 10.179 22.1344 10.21H22.3204H22.3984H22.5274H22.6714H22.7794V6.383C22.7794 6.29159 22.8184 6.24588 22.8994 6.24588H25.4374C25.4533 6.24283 25.4695 6.24283 25.4854 6.24588C25.5011 6.25208 25.5153 6.26141 25.5274 6.2733C25.5398 6.28317 25.5483 6.29722 25.5514 6.31291C25.5559 6.32884 25.5559 6.34574 25.5514 6.36167V17.9616C25.5514 18.1566 25.5514 18.3668 25.5754 18.5923L25.6114 19.1012L25.6324 19.4059C25.6331 19.4475 25.6227 19.4885 25.6024 19.5247C25.5795 19.5596 25.5472 19.5871 25.5094 19.6039C24.8592 19.8635 24.1847 20.0554 23.4964 20.1768C22.904 20.285 22.3042 20.3461 21.7024 20.3596ZM22.7914 17.922V12.5593C22.6823 12.5296 22.5709 12.5092 22.4584 12.4983C22.3234 12.4983 22.1854 12.48 22.0474 12.48C21.5608 12.4718 21.0786 12.576 20.6374 12.7847C20.214 12.9923 19.8503 13.3071 19.5814 13.6988C19.2989 14.1406 19.1555 14.6592 19.1704 15.1858V15.2498C19.1588 15.6781 19.2302 16.1047 19.3804 16.5051C19.5037 16.8321 19.6962 17.1275 19.9444 17.3705C20.186 17.5972 20.4753 17.765 20.7904 17.861C21.1255 17.967 21.4745 18.0204 21.8254 18.0195C22.0144 18.0195 22.1884 18.0195 22.3474 17.9982C22.4759 17.9887 22.6033 17.9684 22.7284 17.9372L22.7914 17.922Z" fill="#FF61F6"/>
</g>
</svg>
